<?xml version="1.0" encoding="UTF-8"?>
<!DOCTYPE svg PUBLIC "-//W3C//DTD SVG 1.1//EN" "http://www.w3.org/Graphics/SVG/1.1/DTD/svg11.dtd">
<!-- Creator: CorelDRAW 2017 -->
<svg xmlns="http://www.w3.org/2000/svg" xml:space="preserve" width="5045px" height="5266px" version="1.1" style="shape-rendering:geometricPrecision; text-rendering:geometricPrecision; image-rendering:optimizeQuality; fill-rule:evenodd; clip-rule:evenodd"
viewBox="0 0 471.32 491.91"
 xmlns:xlink="http://www.w3.org/1999/xlink">
 <defs>
  <style type="text/css">
   <![CDATA[
    .str0 {stroke:black;stroke-width:38.62;stroke-miterlimit:22.9256}
    .fil0 {fill:none}
   ]]>
  </style>
 </defs>
 <g id="Layer_x0020_1">
  <metadata id="CorelCorpID_0Corel-Layer"/>
  <g id="_569579464160">
   <path class="fil0 str0" d="M240.64 21.28l209.05 195.77c2.23,2.08 2.92,5.15 1.79,7.99 -1.12,2.84 -4.08,6.05 -6.77,4.61l-16.3 -8.76 0 241.67c0,5.52 -5.08,10.04 -11.29,10.04l-116.61 0c-10.61,0 -19.27,-7.7 -19.27,-17.15l0 -98.73c0,-6.38 -5.86,-11.59 -13.02,-11.59l-65.12 0c-7.16,0 -13.02,5.21 -13.02,11.59l0 98.73c0,9.45 -8.66,17.15 -19.27,17.15l-116.61 0c-6.21,0 -11.29,-4.52 -11.29,-10.04l0 -241.67 -16.3 8.76c-2.69,1.44 -5.65,-1.77 -6.77,-4.61 -1.12,-2.84 -0.43,-5.91 1.79,-7.99l209.05 -195.77c2.81,-2.63 7.15,-2.63 9.96,0z"/>
   <path class="fil0 str0" d="M344.25 35.5l27.86 0c10.65,0 19.35,7.74 19.35,17.22l0 109.8 -42.06 -39.39 -24.5 -22.95 0 -47.46c0,-9.48 8.69,-17.22 19.35,-17.22z"/>
  </g>
 </g>
</svg>
