<?xml version="1.0" encoding="UTF-8"?>
<!DOCTYPE svg PUBLIC "-//W3C//DTD SVG 1.1//EN" "http://www.w3.org/Graphics/SVG/1.1/DTD/svg11.dtd">
<!-- Creator: CorelDRAW 2017 -->
<svg xmlns="http://www.w3.org/2000/svg" xml:space="preserve" width="7377px" height="7488px" version="1.1" style="shape-rendering:geometricPrecision; text-rendering:geometricPrecision; image-rendering:optimizeQuality; fill-rule:evenodd; clip-rule:evenodd"
viewBox="0 0 1003.9 1018.99"
 xmlns:xlink="http://www.w3.org/1999/xlink">
 <defs>
  <style type="text/css">
   <![CDATA[
    .str0 {stroke:black;stroke-width:56.26;stroke-miterlimit:22.9256}
    .fil0 {fill:none}
    .fil1 {fill:black;fill-rule:nonzero}
   ]]>
  </style>
 </defs>
 <g id="Layer_x0020_1">
  <metadata id="CorelCorpID_0Corel-Layer"/>
  <g id="_569563933296">
   <path class="fil0 str0" d="M735.94 218.52l0 -63.71c0,-69.68 -41.91,-126.68 -93.14,-126.68l-521.53 0c-51.23,0 -93.14,57 -93.14,126.68l0 709.37c0,69.68 41.91,126.69 93.14,126.69l521.53 0c51.23,0 93.14,-57.01 93.14,-126.69l0 -63.71"/>
   <path class="fil1" d="M988.68 473.57l-233.87 -184.29c-9.71,-7.65 -20.83,-7.67 -30.56,-0.05 -9.72,7.62 -15.28,20.72 -15.28,35.98l0 78.51c0,22.87 -13.72,41.53 -30.54,41.53l-317.81 0c-16.82,0 -30.53,18.66 -30.53,41.53l0 45.44c0,22.88 13.71,41.53 30.53,41.53l317.81 0c16.82,0 30.54,18.66 30.54,41.53l0 78.51c0,15.26 5.56,28.36 15.28,35.98 9.73,7.62 20.85,7.6 30.56,-0.05l233.87 -184.28c9.68,-7.64 15.22,-20.71 15.22,-35.94 0,-15.23 -5.54,-28.3 -15.22,-35.93z"/>
  </g>
 </g>
</svg>
