<?xml version="1.0" encoding="UTF-8"?>
<!DOCTYPE svg PUBLIC "-//W3C//DTD SVG 1.1//EN" "http://www.w3.org/Graphics/SVG/1.1/DTD/svg11.dtd">
<!-- Creator: CorelDRAW 2017 -->
<svg xmlns="http://www.w3.org/2000/svg" xml:space="preserve" width="5508px" height="7173px" version="1.1" style="shape-rendering:geometricPrecision; text-rendering:geometricPrecision; image-rendering:optimizeQuality; fill-rule:evenodd; clip-rule:evenodd"
viewBox="0 0 557.79 726.4"
 xmlns:xlink="http://www.w3.org/1999/xlink">
 <defs>
  <style type="text/css">
   <![CDATA[
    .str0 {stroke:black;stroke-width:0.24;stroke-miterlimit:22.9256}
    .fil1 {fill:black}
    .fil0 {fill:black;fill-rule:nonzero}
   ]]>
  </style>
 </defs>
 <g id="Layer_x0020_1">
  <metadata id="CorelCorpID_0Corel-Layer"/>
  <g id="_569570911952">
   <path class="fil0" d="M253.27 527.49c0,-31.02 4.59,-53.97 13.78,-68.65 9.18,-14.89 26.1,-31.22 50.99,-49.42 6.28,-4.34 15.71,-10.96 28.52,-19.44 78.06,-52.52 116.97,-105.66 116.97,-159.22 0,-44.87 -18.85,-82.71 -56.31,-113.72 -37.46,-30.81 -83.86,-46.32 -138.97,-46.32 -47.12,0 -88.21,12.2 -123.25,36.39 -29.21,20.31 -51.78,47.46 -67.43,81.21 -5.1,11.01 -18,16.02 -29.2,11.33l-34.44 -14.4c-6.02,-2.52 -10.26,-6.96 -12.49,-13.1 -2.24,-6.13 -1.86,-12.25 1.12,-18.06 23.38,-45.48 56.11,-81.4 98.45,-107.98 48.9,-30.69 105.86,-46.11 171.59,-46.11 78.79,0 145.98,22.75 201.57,68.24 55.82,45.28 83.62,99.87 83.62,163.77 0,39.08 -11.12,75.06 -33.35,107.73 -22.24,32.67 -56.56,63.89 -102.72,93.25 -6.28,4.14 -14.74,9.52 -25.62,16.34 -44.95,27.91 -67.43,62.24 -67.43,102.97l0 60.82c0,0.76 -0.03,1.51 -0.09,2.25 -9.95,-5.9 -21.57,-9.29 -33.98,-9.29 -15.49,0 -29.75,5.28 -41.07,14.13 -0.17,-1.28 -0.26,-2.59 -0.26,-3.94l0 -88.78z"/>
   <circle class="fil1 str0" cx="294.6" cy="672.78" r="53.5"/>
  </g>
 </g>
</svg>
