<?xml version="1.0" encoding="UTF-8"?>
<!DOCTYPE svg PUBLIC "-//W3C//DTD SVG 1.1//EN" "http://www.w3.org/Graphics/SVG/1.1/DTD/svg11.dtd">
<!-- Creator: CorelDRAW 2017 -->
<svg xmlns="http://www.w3.org/2000/svg" xml:space="preserve" width="6154px" height="6630px" version="1.1" style="shape-rendering:geometricPrecision; text-rendering:geometricPrecision; image-rendering:optimizeQuality; fill-rule:evenodd; clip-rule:evenodd"
viewBox="0 0 687.15 740.36"
 xmlns:xlink="http://www.w3.org/1999/xlink">
 <defs>
  <style type="text/css">
   <![CDATA[
    .str0 {stroke:black;stroke-width:46.16;stroke-miterlimit:22.9256}
    .fil0 {fill:none}
   ]]>
  </style>
 </defs>
 <g id="Layer_x0020_1">
  <metadata id="CorelCorpID_0Corel-Layer"/>
  <g id="_571204858464">
   <path class="fil0 str0" d="M413.65 118.18c43.22,12 81.94,34.82 113.06,65.36l46.73 -26.98c19.64,-11.34 44.97,-4.55 56.31,15.08l28.85 49.98c11.34,19.63 4.55,44.97 -15.09,56.3l-46.66 26.94c5.37,20.88 8.23,42.77 8.23,65.32 0,22.55 -2.86,44.44 -8.23,65.32l46.66 26.94c19.64,11.34 26.43,36.67 15.09,56.3l-28.85 49.98c-11.34,19.63 -36.67,26.42 -56.31,15.09l-46.73 -26.98c-31.12,30.53 -69.84,53.35 -113.06,65.34l0 53.89c0,22.67 -18.55,41.22 -41.22,41.22l-57.71 0c-22.67,0 -41.21,-18.55 -41.21,-41.22l0 -53.88c-43.23,-12 -81.95,-34.82 -113.07,-65.36l-46.73 26.99c-19.63,11.33 -44.97,4.54 -56.31,-15.09l-28.85 -49.98c-11.33,-19.63 -4.54,-44.96 15.09,-56.3l46.66 -26.94c-5.37,-20.88 -8.22,-42.77 -8.22,-65.32 0,-22.55 2.85,-44.44 8.22,-65.32l-46.66 -26.94c-19.63,-11.33 -26.42,-36.67 -15.09,-56.3l28.85 -49.98c11.34,-19.63 36.68,-26.42 56.31,-15.08l46.73 26.98c31.12,-30.54 69.84,-53.36 113.07,-65.36l0 -53.88c0,-22.67 18.54,-41.22 41.21,-41.22l57.71 0c22.67,0 41.22,18.55 41.22,41.22l0 53.88z"/>
   <circle class="fil0 str0" cx="343.58" cy="370.18" r="156.39"/>
  </g>
 </g>
</svg>
