<?xml version="1.0" encoding="UTF-8"?>
<!DOCTYPE svg PUBLIC "-//W3C//DTD SVG 1.1//EN" "http://www.w3.org/Graphics/SVG/1.1/DTD/svg11.dtd">
<!-- Creator: CorelDRAW 2017 -->
<svg xmlns="http://www.w3.org/2000/svg" xml:space="preserve" width="6592px" height="4691px" version="1.1" style="shape-rendering:geometricPrecision; text-rendering:geometricPrecision; image-rendering:optimizeQuality; fill-rule:evenodd; clip-rule:evenodd"
viewBox="0 0 782.2 556.62"
 xmlns:xlink="http://www.w3.org/1999/xlink">
 <defs>
  <style type="text/css">
   <![CDATA[
    .str0 {stroke:black;stroke-width:49.06;stroke-miterlimit:22.9256}
    .fil0 {fill:none}
   ]]>
  </style>
 </defs>
 <g id="Layer_x0020_1">
  <metadata id="CorelCorpID_0Corel-Layer"/>
  <g id="_569576304432">
   <g>
    <path class="fil0 str0" d="M180.83 455.47l-156.3 0c0,-90.12 87.75,-163.19 196.01,-163.19 36.83,0 71.29,8.47 100.73,23.18 -65.94,29.75 -116.77,79.77 -140.44,140.01z"/>
    <path class="fil0 str0" d="M220.54 101.15c40.28,0 72.93,32.65 72.93,72.93 0,40.28 -32.65,72.93 -72.93,72.93 -40.28,0 -72.94,-32.65 -72.94,-72.93 0,-40.28 32.66,-72.93 72.94,-72.93z"/>
   </g>
   <g>
    <path class="fil0 str0" d="M461.94 532.09l-295.74 0c0,-135.98 132.41,-246.22 295.74,-246.22 163.33,0 295.73,110.24 295.73,246.22l-295.73 0z"/>
    <circle class="fil0 str0" cx="461.94" cy="134.57" r="110.04"/>
   </g>
  </g>
 </g>
</svg>
